# xmcd
#
# Track frame offsets:
#	150
#	13545
#	26082
#	39547
#	50065
#	62005
#	71782
#	85480
#	101115
#	113055
#
# Disc length: 1665 seconds
#
# Revision: 0
# Processed by: cddbd v1.5.2PL0 Copyright (c) Steve Scherf et al.
# Submitted via: audiograbber 1.83.01
#
DISCID=8a067f0a
DTITLE=Leo Dan - Tesoros De Coleccion 3.1
DYEAR=1985
DGENRE=Ranchera
TTITLE0=Como Te Extraño Mi Amor (Ranchera)
TTITLE1=Al Final Del Verano
TTITLE2=Amar, Sabiendo Perdonar
TTITLE3=Ausencia
TTITLE4=Despues De Ayer
TTITLE5=Si Te Encuentras Sola
TTITLE6=Sabor A Prohibido
TTITLE7=Como Decirte Que Te Quiero
TTITLE8=Dime
TTITLE9=Cuando Un Amor Se Va
EXTD=MS®
EXTT0=MS®
EXTT1=
EXTT2=
EXTT3=
EXTT4=
EXTT5=
EXTT6=
EXTT7=
EXTT8=
EXTT9=
PLAYORDER=
